<svg xmlns="http://www.w3.org/2000/svg" class="" style="display: block; user-select: none;" viewBox="0 0 593.6 232" width="593.6" height="232" aria-label="Circuit visualization"><defs xmlns="http://www.w3.org/1999/xhtml"><style type="text/css">&lt;!--/*--&gt;&lt;![CDATA[/*&gt;&lt;!--*/

  /* from https://fonts.googleapis.com/css2?family=IBM+Plex+Sans&amp;display=swap */
  @font-face {
    font-family: 'IBM Plex Sans';
    font-style: normal;
    font-weight: 400;
    font-display: swap;
    src: url(https://fonts.gstatic.com/s/ibmplexsans/v14/zYXgKVElMYYaJe8bpLHnCwDKhdHeFaxOedc.woff2) format('woff2');
  }
  
  /* from https://fonts.googleapis.com/css2?family=IBM+Plex+Mono&amp;display=swap */
  @font-face {
    font-family: 'IBM Plex Mono';
    font-style: normal;
    font-weight: 400;
    font-display: swap;
    src: url(https://fonts.gstatic.com/s/ibmplexmono/v12/-F63fjptAgt5VM-kVkqdyU8n1i8q131nj-o.woff2) format('woff2');
  }    

/*]]&gt;*/--&gt;</style></defs><rect x="0" y="0" width="593.6" height="232" style="fill: rgb(255, 255, 255);"/><g><g transform="translate(20, 0)"><g><g><text x="57.599999999999994" y="36" style="fill: rgb(111, 111, 111); font-family: IBM Plex Mono, monospace; font-weight: 400; text-anchor: end; font-size: 14px;" dy=".3em"><tspan>q[0]</tspan></text><text x="57.599999999999994" y="76" style="fill: rgb(111, 111, 111); font-family: IBM Plex Mono, monospace; font-weight: 400; text-anchor: end; font-size: 14px;" dy=".3em"><tspan>q[1]</tspan></text><text x="57.599999999999994" y="116" style="fill: rgb(111, 111, 111); font-family: IBM Plex Mono, monospace; font-weight: 400; text-anchor: end; font-size: 14px;" dy=".3em"><tspan>q[2]</tspan></text></g><g><text x="57.599999999999994" y="156" style="fill: rgb(111, 111, 111); font-family: IBM Plex Mono, monospace; font-weight: 400; text-anchor: end; font-size: 14px;" dy=".3em">c1x1</text><text x="57.599999999999994" y="188" style="fill: rgb(111, 111, 111); font-family: IBM Plex Mono, monospace; font-weight: 400; text-anchor: end; font-size: 14px;" dy=".3em">cx11</text></g></g></g><g><g><line x1="87.6" x2="573.6" y1="36" y2="36" style="fill: none; stroke: rgb(224, 224, 224); stroke-width: 1px; stroke-linecap: round;"/><line x1="87.6" x2="573.6" y1="76" y2="76" style="fill: none; stroke: rgb(224, 224, 224); stroke-width: 1px; stroke-linecap: round;"/><line x1="87.6" x2="573.6" y1="116" y2="116" style="fill: none; stroke: rgb(224, 224, 224); stroke-width: 1px; stroke-linecap: round;"/></g><line x1="87.6" x2="573.6" y1="154" y2="154" style="fill: none; stroke: rgb(224, 224, 224); stroke-width: 1px; stroke-linecap: round;"/><line x1="87.6" x2="573.6" y1="158" y2="158" style="fill: none; stroke: rgb(224, 224, 224); stroke-width: 1px; stroke-linecap: round;"/><line x1="87.6" x2="573.6" y1="186" y2="186" style="fill: none; stroke: rgb(224, 224, 224); stroke-width: 1px; stroke-linecap: round;"/><line x1="87.6" x2="573.6" y1="190" y2="190" style="fill: none; stroke: rgb(224, 224, 224); stroke-width: 1px; stroke-linecap: round;"/></g><g><rect x="95.6" y="20" width="83" height="32" style="fill: rgb(159, 24, 83); stroke-width: 0px; stroke: transparent; paint-order: stroke;"/><text x="137.1" y="33" style="font-family: IBM Plex Sans, sans-serif; font-size: 16px; font-style: normal; fill: rgb(255, 255, 255); font-weight: 400; text-anchor: middle;" dy=".3em">RY</text><text x="137.1" y="46" style="font-family: IBM Plex Mono, monospace; font-size: 8px; font-style: normal; fill: rgb(255, 255, 255); font-weight: 400; text-anchor: middle;" dy=".3em">(1.854590436)</text></g><g><rect x="121.1" y="60" width="32" height="32" style="fill: rgb(250, 77, 86); stroke-width: 0px; stroke: transparent; paint-order: stroke;"/><text x="137.1" y="76" style="font-family: IBM Plex Sans, sans-serif; font-size: 16px; font-style: normal; fill: rgb(22, 22, 22); font-weight: 400; text-anchor: middle;" dy=".3em">H</text></g><g><rect x="186.6" y="20" width="49" height="32" style="fill: rgb(51, 177, 255); stroke-width: 0px; stroke: transparent; paint-order: stroke;"/><text x="211.1" y="33" style="font-family: IBM Plex Sans, sans-serif; font-size: 16px; font-style: normal; fill: rgb(22, 22, 22); font-weight: 400; text-anchor: middle;" dy=".3em">RZ</text><text x="211.1" y="46" style="font-family: IBM Plex Mono, monospace; font-size: 8px; font-style: normal; fill: rgb(22, 22, 22); font-weight: 400; text-anchor: middle;" dy=".3em">(pi/3)</text></g><line x1="211.1" y1="76" x2="211.1" y2="116" style="stroke-width: 1px; stroke: rgb(0, 45, 156);"/><circle r="4" cx="211.1" cy="76" style="fill: rgb(0, 45, 156);"/><g transform="translate(211.1, 116)"><g><circle cx="0" cy="0" r="16" style="fill: rgb(0, 45, 156); stroke-width: 0px; stroke: transparent; paint-order: stroke;"/><line x1="0" y1="-8" x2="0" y2="8" style="stroke-width: 1.25px; stroke: rgb(255, 255, 255);"/><line x1="8" y1="0" x2="-8" y2="0" style="stroke-width: 1.25px; stroke: rgb(255, 255, 255);"/></g></g><g transform="translate(251.60000000000002, 36)"><line x1="0" y1="-16" x2="0" y2="-2" style="stroke-width: 1px; stroke: rgb(22, 22, 22);"/><line x1="0" y1="2" x2="0" y2="16" style="stroke-width: 1px; stroke: rgb(22, 22, 22);"/></g><g transform="translate(251.60000000000002, 76)"><line x1="0" y1="-16" x2="0" y2="-2" style="stroke-width: 1px; stroke: rgb(22, 22, 22);"/><line x1="0" y1="2" x2="0" y2="16" style="stroke-width: 1px; stroke: rgb(22, 22, 22);"/></g><g transform="translate(251.60000000000002, 116)"><line x1="0" y1="-16" x2="0" y2="-2" style="stroke-width: 1px; stroke: rgb(22, 22, 22);"/><line x1="0" y1="2" x2="0" y2="16" style="stroke-width: 1px; stroke: rgb(22, 22, 22);"/></g><g data-testid="phaseDisk-q[0]"><g transform="translate(260.6, 20)"><defs><clipPath id="radix-_r_37v_"><circle cx="16" cy="16" r="16"/></clipPath></defs><g><circle cx="16" cy="16" r="16" fill="#e8e8e8"/><g clip-path="url(#radix-_r_37v_)"><rect x="0" y="11.519999980926514" width="32" height="20.480000019073486" fill="#33b1ff"/><rect x="0" y="0" width="32" height="11.519999980926514" fill="#e8e8e8"/></g><circle cx="16" cy="16" r="15.250207299743963" fill="none" stroke="#161616" stroke-width="1.5"/><line stroke="#161616" stroke-width="2" x1="16" y1="16" x2="23.999887272705585" y2="2.1435284569265907"/></g></g><rect width="32" height="32" y="20" x="260.6" style="fill: transparent;" data-state="closed"/></g><g data-testid="phaseDisk-q[1]"><g transform="translate(260.6, 60)"><defs><clipPath id="radix-_r_380_"><circle cx="16" cy="16" r="16"/></clipPath></defs><g><circle cx="16" cy="16" r="16" fill="#e8e8e8"/><g clip-path="url(#radix-_r_380_)"><rect x="0" y="16" width="32" height="16" fill="#33b1ff"/><rect x="0" y="0" width="32" height="16" fill="#e8e8e8"/></g><circle cx="16" cy="16" r="7.25" fill="none" stroke="#161616" stroke-width="1.5"/><line stroke="#161616" stroke-width="2" x1="16" y1="16" x2="32" y2="16"/></g></g><rect width="32" height="32" y="60" x="260.6" style="fill: transparent;" data-state="closed"/></g><g data-testid="phaseDisk-q[2]"><g transform="translate(260.6, 100)"><defs><clipPath id="radix-_r_381_"><circle cx="16" cy="16" r="16"/></clipPath></defs><g><circle cx="16" cy="16" r="16" fill="#e8e8e8"/><g clip-path="url(#radix-_r_381_)"><rect x="0" y="16" width="32" height="16" fill="#33b1ff"/><rect x="0" y="0" width="32" height="16" fill="#e8e8e8"/></g><circle cx="16" cy="16" r="7.25" fill="none" stroke="#161616" stroke-width="1.5"/><line stroke="#161616" stroke-width="2" x1="16" y1="16" x2="32" y2="16"/></g></g><rect width="32" height="32" y="100" x="260.6" style="fill: transparent;" data-state="closed"/></g><line x1="324.6" y1="36" x2="324.6" y2="76" style="stroke-width: 1px; stroke: rgb(0, 45, 156);"/><circle r="4" cx="324.6" cy="36" style="fill: rgb(0, 45, 156);"/><g transform="translate(324.6, 76)"><g><circle cx="0" cy="0" r="16" style="fill: rgb(0, 45, 156); stroke-width: 0px; stroke: transparent; paint-order: stroke;"/><line x1="0" y1="-8" x2="0" y2="8" style="stroke-width: 1.25px; stroke: rgb(255, 255, 255);"/><line x1="8" y1="0" x2="-8" y2="0" style="stroke-width: 1.25px; stroke: rgb(255, 255, 255);"/></g></g><g><rect x="348.6" y="20" width="32" height="32" style="fill: rgb(250, 77, 86); stroke-width: 0px; stroke: transparent; paint-order: stroke;"/><text x="364.6" y="36" style="font-family: IBM Plex Sans, sans-serif; font-size: 16px; font-style: normal; fill: rgb(22, 22, 22); font-weight: 400; text-anchor: middle;" dy=".3em">H</text></g><g transform="translate(348.6, 0)"><line x1="16" y1="76" x2="16" y2="156" style="stroke-width: 1.5px; stroke: rgb(141, 141, 141); stroke-dasharray: 3px;"/><g transform="translate(16, 158)"><path d="M0,0 L8,0 L4,8 z" fill="#8d8d8d" transform="translate(-4, -8)"/></g><text x="24" y="144" dy=".3em" style="font-family: IBM Plex Sans, sans-serif; font-size: 12px; fill: rgb(22, 22, 22); font-weight: 700; text-anchor: middle;">0</text><g transform="translate(0, 60)"><rect x="0" y="0" width="32" height="32" style="fill: rgb(168, 168, 168); stroke-width: 0px; stroke: transparent; paint-order: stroke;"/><path d="M25.2941 11.584H22.7981L25.2301 8.008V7H21.6141V8H23.9101L21.4861 11.576V12.584H25.2941V11.584ZM15.5662 23.4664C15.5662 24.0836 15.0658 24.584 14.4485 24.584C13.8313 24.584 13.3309 24.0836 13.3309 23.4664C13.3309 22.8621 13.8104 22.3699 14.4096 22.3494L17.1775 17.9208C16.3359 17.5757 15.4144 17.3855 14.4485 17.3855C10.4729 17.3855 7.25 20.6084 7.25 24.584H6C6 19.918 9.78254 16.1355 14.4485 16.1355C15.658 16.1355 16.8081 16.3896 17.8483 16.8474L19.5068 14.1939L20.5668 14.8564L18.9545 17.4361C21.3236 18.9327 22.8971 21.5746 22.8971 24.584H21.6471C21.6471 22.0216 20.3082 19.7719 18.2919 18.4962L15.4698 23.0116C15.5317 23.1505 15.5662 23.3044 15.5662 23.4664Z" fill="#161616"/></g></g><g transform="translate(388.6, 0)"><line x1="16" y1="36" x2="16" y2="188" style="stroke-width: 1.5px; stroke: rgb(141, 141, 141); stroke-dasharray: 3px;"/><g transform="translate(16, 190)"><path d="M0,0 L8,0 L4,8 z" fill="#8d8d8d" transform="translate(-4, -8)"/></g><text x="24" y="176" dy=".3em" style="font-family: IBM Plex Sans, sans-serif; font-size: 12px; fill: rgb(22, 22, 22); font-weight: 700; text-anchor: middle;">0</text><g transform="translate(0, 20)"><rect x="0" y="0" width="32" height="32" style="fill: rgb(168, 168, 168); stroke-width: 0px; stroke: transparent; paint-order: stroke;"/><path d="M25.2941 11.584H22.7981L25.2301 8.008V7H21.6141V8H23.9101L21.4861 11.576V12.584H25.2941V11.584ZM15.5662 23.4664C15.5662 24.0836 15.0658 24.584 14.4485 24.584C13.8313 24.584 13.3309 24.0836 13.3309 23.4664C13.3309 22.8621 13.8104 22.3699 14.4096 22.3494L17.1775 17.9208C16.3359 17.5757 15.4144 17.3855 14.4485 17.3855C10.4729 17.3855 7.25 20.6084 7.25 24.584H6C6 19.918 9.78254 16.1355 14.4485 16.1355C15.658 16.1355 16.8081 16.3896 17.8483 16.8474L19.5068 14.1939L20.5668 14.8564L18.9545 17.4361C21.3236 18.9327 22.8971 21.5746 22.8971 24.584H21.6471C21.6471 22.0216 20.3082 19.7719 18.2919 18.4962L15.4698 23.0116C15.5317 23.1505 15.5662 23.3044 15.5662 23.4664Z" fill="#161616"/></g></g><g transform="translate(428.6, 0)"><line x1="16" y1="100" x2="16" y2="156" style="stroke-width: 1.5px; stroke: rgb(141, 141, 141);"/><circle cx="16" cy="156" r="3" style="stroke: rgb(141, 141, 141); fill: rgb(141, 141, 141);"/><text x="16" y="168" style="font-family: IBM Plex Sans, sans-serif; font-size: 12px; fill: rgb(22, 22, 22); font-weight: 700; text-anchor: middle;" dy=".3em">== 1</text></g><g transform="translate(444.6, 116)"><g><circle cx="0" cy="0" r="16" style="fill: rgb(0, 45, 156); stroke-width: 0px; stroke: transparent; paint-order: stroke;"/><line x1="0" y1="-8" x2="0" y2="8" style="stroke-width: 1.25px; stroke: rgb(255, 255, 255);"/><line x1="8" y1="0" x2="-8" y2="0" style="stroke-width: 1.25px; stroke: rgb(255, 255, 255);"/></g></g><g transform="translate(468.6, 0)"><line x1="16" y1="100" x2="16" y2="188" style="stroke-width: 1.5px; stroke: rgb(141, 141, 141);"/><circle cx="16" cy="188" r="3" style="stroke: rgb(141, 141, 141); fill: rgb(141, 141, 141);"/><text x="16" y="200" style="font-family: IBM Plex Sans, sans-serif; font-size: 12px; fill: rgb(22, 22, 22); font-weight: 700; text-anchor: middle;" dy=".3em">== 1</text></g><g><rect x="468.6" y="100" width="32" height="32" style="fill: rgb(51, 177, 255); stroke-width: 0px; stroke: transparent; paint-order: stroke;"/><text x="484.6" y="116" style="font-family: IBM Plex Sans, sans-serif; font-size: 16px; font-style: normal; fill: rgb(22, 22, 22); font-weight: 400; text-anchor: middle;" dy=".3em">Z</text></g><g transform="translate(516.6, 36)"><line x1="0" y1="-16" x2="0" y2="-2" style="stroke-width: 1px; stroke: rgb(22, 22, 22);"/><line x1="0" y1="2" x2="0" y2="16" style="stroke-width: 1px; stroke: rgb(22, 22, 22);"/></g><g transform="translate(516.6, 76)"><line x1="0" y1="-16" x2="0" y2="-2" style="stroke-width: 1px; stroke: rgb(22, 22, 22);"/><line x1="0" y1="2" x2="0" y2="16" style="stroke-width: 1px; stroke: rgb(22, 22, 22);"/></g><g transform="translate(516.6, 116)"><line x1="0" y1="-16" x2="0" y2="-2" style="stroke-width: 1px; stroke: rgb(22, 22, 22);"/><line x1="0" y1="2" x2="0" y2="16" style="stroke-width: 1px; stroke: rgb(22, 22, 22);"/></g><g data-testid="phaseDisk-q[0]"><g transform="translate(525.6, 20)"><defs><clipPath id="radix-_r_382_"><circle cx="16" cy="16" r="16"/></clipPath></defs><g><circle cx="16" cy="16" r="16" fill="#e8e8e8"/><g clip-path="url(#radix-_r_382_)"><rect x="0" y="0" width="32" height="32" fill="#33b1ff"/><rect x="0" y="0" width="32" height="0" fill="#e8e8e8"/></g><circle cx="16" cy="16" r="15.25" fill="none" stroke="#161616" stroke-width="1.5"/><line stroke="#161616" stroke-width="2" x1="16" y1="16" x2="32" y2="16"/></g></g><rect width="32" height="32" y="20" x="525.6" style="fill: transparent;" data-state="closed"/></g><g data-testid="phaseDisk-q[1]"><g transform="translate(525.6, 60)"><defs><clipPath id="radix-_r_383_"><circle cx="16" cy="16" r="16"/></clipPath></defs><g><circle cx="16" cy="16" r="16" fill="#e8e8e8"/><g clip-path="url(#radix-_r_383_)"><rect x="0" y="32" width="32" height="0" fill="#33b1ff"/><rect x="0" y="0" width="32" height="32" fill="#e8e8e8"/></g><circle cx="16" cy="16" r="15.25" fill="none" stroke="#161616" stroke-width="1.5"/><line stroke="#161616" stroke-width="2" x1="16" y1="16" x2="32" y2="16"/></g></g><rect width="32" height="32" y="60" x="525.6" style="fill: transparent;" data-state="closed"/></g><g data-testid="phaseDisk-q[2]"><g transform="translate(525.6, 100)"><defs><clipPath id="radix-_r_384_"><circle cx="16" cy="16" r="16"/></clipPath></defs><g><circle cx="16" cy="16" r="16" fill="#e8e8e8"/><g clip-path="url(#radix-_r_384_)"><rect x="0" y="11.519999980926514" width="32" height="20.480000019073486" fill="#33b1ff"/><rect x="0" y="0" width="32" height="11.519999980926514" fill="#e8e8e8"/></g><circle cx="16" cy="16" r="15.250207299743963" fill="none" stroke="#161616" stroke-width="1.5"/><line stroke="#161616" stroke-width="2" x1="16" y1="16" x2="23.999887272705585" y2="2.1435284569265907"/></g></g><rect width="32" height="32" y="100" x="525.6" style="fill: transparent;" data-state="closed"/></g></g></svg>